inDegrees=yes
name=ik_MT_2026-09-05_11h40_01210270-000-000_orientations_dedrift
DataType=double
version=3
OpenSimVersion=4.5
endheader
time	pelvis_tilt	pelvis_list	pelvis_rotation	pelvis_tx	pelvis_ty	pelvis_tz	hip_flexion_r	hip_adduction_r	hip_rotation_r	knee_angle_r	knee_angle_r_beta	ankle_angle_r	subtalar_angle_r	mtp_angle_r	hip_flexion_l	hip_adduction_l	hip_rotation_l	knee_angle_l	knee_angle_l_beta	ankle_angle_l	subtalar_angle_l	mtp_angle_l	lumbar_extension	lumbar_bending	lumbar_rotation	arm_flex_r	arm_add_r	arm_rot_r	elbow_flex_r	pro_sup_r	wrist_flex_r	wrist_dev_r	arm_flex_l	arm_add_l	arm_rot_l	elbow_flex_l	pro_sup_l	wrist_flex_l	wrist_dev_l
189.95	-11.15643380149959	2.988442227849383	-3444.835354499849	0	0.9399999999999999	0	-11.29726163378401	-12.37142381348071	6.610269541899475	16.59043140945662	0.2895576524213015	-5.871031349537556	0	0	30.44610821567495	-14.51420161781354	2.873274559435807	16.44497985098095	0.287019043823744	-7.135496575298647	0	0	-13.20530111730511	-1.955160219150562	0.3005311783658742	5.016104236626838	-17.45114543245008	10.31824457895982	10.13922766152196	45.00000025534055	0	0	-8.668144171624977	11.56613718713947	-29.15479749153861	76.45041693025112	45.00000025534055	0	0
189.975	-11.24823737849105	3.12153008595581	-3446.689754537825	0	0.9399999999999999	0	-12.21688717646298	-15.17409090576186	8.261936587478326	15.78498484182574	0.2754999578672555	-10.46887642082328	0	0	26.52738399827702	-13.93976015455088	1.269670695732339	15.19641507745469	0.2652274776012935	-7.211192965213652	0	0	-13.60327473069552	-3.513869817601018	1.868822208117859	3.565366913957091	-17.04278706123277	9.830060447678843	11.40560207267247	45.00000025534055	0	0	-9.447877258486319	11.34716043076852	-28.16253177859237	77.59275138825244	45.00000025534055	0	0
190	-11.06651936609476	3.569632282488782	-3448.056468488095	0	0.9399999999999999	0	-12.78283600094166	-17.45196214549853	9.291888992116359	15.27110497551593	0.266531062240441	-17.03053236277524	0	0	22.9588907865341	-13.69735114787229	0.2884564809268388	14.06333875928738	0.245451565172899	-7.315949570181281	0	0	-13.25810961369164	-5.187744981667812	3.648367941618095	1.370726785246577	-15.97929332443336	8.406510948844948	12.68614008138468	45.00000025534055	0	0	-10.65756630460411	10.4352048230128	-26.94138240055033	78.43167334794035	45.00000025534055	0	0
190.025	-10.26404787852335	4.054377767048231	-3449.205074406529	0	0.9399999999999999	0	-12.09441089419244	-19.17938693456203	10.43896022823231	15.37637422078125	0.2683683571714103	-23.81232338867081	0	0	19.89598250721452	-14.2840663863625	-0.6070207022042018	12.55291734585605	0.2190897384158957	-7.749899183760061	0	0	-12.19127729951387	-6.609300844909276	5.14392959136048	-1.080302975515082	-14.63013506369602	6.325614121511867	14.26633076117724	45.00000025534055	0	0	-11.75543757242938	9.225541072047656	-26.30606179072179	78.96700711486443	45.00000025534055	0	0
190.05	-9.429710327773183	4.501738779094623	-3450.587530348753	0	0.9399999999999999	0	-9.725869116714005	-20.86214331074045	11.84125226313503	16.96415256767096	0.2960803171165085	-27.32583394531155	0	0	18.41904864252269	-14.98026240803965	-2.038678347646529	12.06831131984842	0.2106317676870574	-7.125369733105511	0	0	-13.17999068483139	-7.592485800430275	7.199959996314978	-1.415518786327928	-13.53021219272849	3.249971481583105	15.86783136332667	45.00000025534055	0	0	-10.82100688207257	8.428832266439358	-25.15270212067145	79.66458824191832	45.00000025534055	0	0
190.075	-8.654041952497508	4.785205491352411	-3451.586219402601	0	0.9399999999999999	0	-7.14592312926548	-22.69056374036737	11.79278673774187	19.23912793352328	0.335786127652394	-28.23628576554761	0	0	18.72615365966433	-15.39332224167153	-3.598444893807418	12.73091645068135	0.2221964088606998	-6.00880544989399	0	0	-14.7371031542076	-8.307212714312685	8.401045932924879	-0.6797585001053824	-12.37155692503969	0.9609098975702908	16.67430382939972	45.00000025534055	0	0	-9.581359362870073	8.14788834159679	-24.04989775569707	80.88738913432735	45.00000025534055	0	0
190.1	-6.977888693767016	4.092349102019843	-3452.076768109112	0	0.9399999999999999	0	-3.972683309686542	-25.624249436274	9.142568022812625	21.29938500654685	0.3717443970141565	-26.83461002456199	0	0	18.92382012136013	-15.8737750556201	-5.806757458939185	10.54658631041106	0.1840726559624337	-8.731583017241885	0	0	-13.82331783244714	-8.95135343768991	8.793311909625702	-0.8097725331880594	-11.05420663663082	0.3738532429126541	16.80156799640712	45.00000025534055	0	0	-9.915694052794899	8.094566183679625	-22.90850986308148	82.77360858669024	45.00000025534055	0	0
190.125	-4.2969214592045	2.01806090101344	-3451.859399666709	0	0.9399999999999999	0	-0.1175915164440431	-28.31003211540737	5.711143204362452	23.38048265532889	0.4080664030409156	-21.50720895552153	0	0	19.79596402177719	-13.97877793127842	-8.791519021741317	7.559541406785638	0.1319388874892534	-11.36414233350297	0	0	-11.06011318517412	-9.936766594628903	7.989604073071585	-1.047178272814588	-10.07522255508802	1.25554591984732	16.36728624125712	45.00000025534055	0	0	-10.70420210307224	8.340496339088542	-21.74514869863689	85.19905401820955	45.00000025534055	0	0
190.15	-1.534221726554664	-0.3644377463900051	-3450.808621390572	0	0.9399999999999999	0	4.471886415766855	-29.83816451138228	4.312516287331632	26.81482915345481	0.4680070570875501	-16.45335124494498	0	0	21.79353225545732	-10.81358184252977	-8.424595693751233	6.899913786987852	0.1204262136866887	-10.79747152939504	0	0	-8.171673425496461	-10.92413534377822	6.329549119837185	-1.057337919130367	-9.205002576383574	2.820117510296178	15.16933557189354	45.00000025534055	0	0	-11.4810787051675	8.780519874039205	-20.42207367488523	87.88418535225074	45.00000025534055	0	0
190.175	1.027128833845843	-1.810357256482458	-3449.312712152275	0	0.9399999999999999	0	9.586873940123313	-29.49512375438532	4.468229850908691	31.58663976876768	0.5512908636063764	-12.82402977257422	0	0	24.38747373302709	-8.57801697897856	-4.935518459808719	7.300414624986976	0.1274162719667698	-10.54618286910351	0	0	-6.117296365692528	-11.1504957560994	4.23429021467805	-0.9301951788440159	-8.216178185912314	4.500224821504532	13.68914390948874	45.00000025534055	0	0	-12.05565839173478	9.392937509564534	-19.28844316469002	90.55205211167264	45.00000025534055	0	0
190.2	2.846741964543237	-2.099285833005686	-3448.51822194322	0	0.9399999999999999	0	14.1293817939749	-28.37676527044194	5.298917756439907	35.88390618025349	0.6262923113221652	-10.77022649662362	0	0	25.61318219026448	-7.363622060284444	-2.098319313620961	7.263089323474389	0.1267648225610756	-11.26423826989713	0	0	-4.923087369415307	-10.72698594949482	2.936727698843093	-0.8483936446445732	-7.133086384386232	5.76657822867005	11.90496995577852	45.00000025534055	0	0	-12.53846604180898	10.2453475158823	-18.8766973924417	93.1579253590167	45.00000025534055	0	0
190.225	3.254215626373176	-1.235200852056347	-3448.698313363747	0	0.9399999999999999	0	16.77959288406299	-27.71196478911303	5.838896516067515	39.51922975773872	0.6897406771246617	-8.606526937740178	0	0	24.26021667258778	-7.625180464871746	-1.449749643387402	6.923733997440825	0.120841954787611	-11.69752684471949	0	0	-5.06082347534581	-10.00178066930014	2.840802918481798	-0.9221696099745915	-6.038671357368038	6.44066879761241	10.30200196668772	45.00000025534055	0	0	-12.73411264387755	10.79231655968929	-18.84919584834237	94.54851404508469	45.00000025534055	0	0
190.25	4.345164008957106	-0.9589265051152912	-3449.178875466532	0	0.9399999999999999	0	20.22040731685221	-27.85810832939295	6.36000481391912	42.10053193201919	0.7347928990547444	-7.074778111507039	0	0	23.20612614638937	-8.201571862446878	-2.591222478150195	5.627631141057419	0.0982206924992174	-12.26491687676831	0	0	-4.119481273440615	-9.483883898427488	3.161784298003776	-0.8859110860800319	-5.065530734024329	6.898514448228914	8.70460444220098	45.00000025534055	0	0	-12.7261432196308	11.17781704684777	-19.15445180043635	95.29823399224053	45.00000025534055	0	0
190.275	4.188334595081026	-0.5655070501750294	-3449.895803071624	0	0.9399999999999999	0	22.89188027928687	-27.42915959709172	7.867666752045915	45.52481663723205	0.7945579416863923	-4.919095658230404	0	0	20.90463252204856	-8.160858161289077	-3.672479617628342	4.148210767180896	0.07239993595398658	-12.20566310321904	0	0	-4.025856997300932	-9.5031134137731	3.976466334504985	-0.9462560447316642	-4.350691737335045	7.356474125406323	7.208948535980793	45.00000025534055	0	0	-13.04984489919207	11.37256981134282	-19.16137463129218	95.88898052486317	45.00000025534055	0	0
190.3	4.314865564634371	-0.6594753566863798	-3450.658277880019	0	0.9399999999999999	0	27.04939411299123	-24.71516965141334	11.09232160456146	51.0620522681923	0.8912009349053942	-1.715526146067206	0	0	19.46845913021589	-7.655341171518522	-3.594343427567295	3.275055728641756	0.0571605056511006	-11.30639538751602	0	0	-3.510287155542213	-9.767547203239848	4.965321162869081	-0.9528151902409359	-3.94409702084115	7.852619783774725	5.918740897746002	45.00000025534055	0	0	-13.10788012561372	11.54188079460294	-19.31756173338518	96.26870322198566	45.00000025534055	0	0
